<?xml version="1.0" encoding="UTF-8"?>
<svg id="Capa_2" data-name="Capa 2" xmlns="http://www.w3.org/2000/svg" viewBox="0 0 134.86 118.57">
  <defs>
    <style>
      .cls-1 {
        fill: #b2b2b2;
      }

      .cls-2 {
        fill: #fa6f90;
      }

      .cls-3 {
        fill: #e1251b;
      }

      .cls-4 {
        fill: #1d1d1b;
      }
    </style>
  </defs>
  <g id="Capa_1-2" data-name="Capa 1">
    <g>
      <path class="cls-3" d="M76.4,62.72c.99,0,1.93-.38,2.62-1.09,.71-.66,1.11-1.59,1.11-2.56,.03-.75-.25-1.47-.78-2-.55-.52-1.29-.79-2.05-.76-1,0-1.96,.4-2.67,1.1-.74,.62-1.17,1.52-1.19,2.48-.05,.78,.24,1.53,.78,2.09,.6,.53,1.38,.79,2.18,.74Z"/>
      <path class="cls-3" d="M134.44,69.84l-.31-.05c-.94,0-3.5,1.91-7.69,5.72-2,1.82-3.61,3.26-4.82,4.31-2.61,2.44-5.48,4.59-8.55,6.43-1.76,1-3.73,1.55-5.75,1.6-.56,.04-1.12-.07-1.62-.31-.34-.22-.53-.6-.51-1,.03-.57,.13-1.13,.31-1.67,.21-.73,.57-1.84,1.1-3.33,3.73-.5,7.29-1.83,10.44-3.89,2.67-1.89,4-3.93,4-6.14,.07-1.21-.37-2.39-1.21-3.26-.89-.82-2.08-1.25-3.3-1.18-1.78,.05-3.53,.46-5.15,1.19-2.02,.86-3.91,1.98-5.64,3.33-1.19,.9-2.29,1.9-3.29,3-1.29,1.17-2.75,2.56-4.4,4.16l-.79,.83c-3.01,2.91-5.26,4.97-6.73,6.18-1.47,1.21-2.51,1.81-3.1,1.81-.22,0-.43-.05-.62-.17-.15-.1-.24-.27-.24-.45,.3-1.68,.86-3.31,1.67-4.81,1.32-2.85,2.79-5.62,4.39-8.32l8.34-14.34h5.72l.41-1.62h-4.93l5.27-9-7.1,.28-8,13.2-.48,.79c-1.7,2.97-3.76,5.71-6.14,8.17l-2,2-.35,.35-.48,.45c-.28,.26-.59,.53-.93,.82-.49,.41-.94,.87-1.33,1.37-1.12,1.05-2.39,2.31-3.81,3.78-1.92,2-3.95,3.9-6.08,5.67-1.62,1.3-2.75,1.95-3.39,1.95-.33,.02-.6-.23-.62-.56,0-.02,0-.04,0-.06,.17-.77,.45-1.51,.84-2.2,.56-1.2,1.38-2.8,2.46-4.8l7.13-13-7.34,.52c-.99,1.19-2.04,2.33-3.14,3.41l-.38,.38-1.16,1.16c-1.41,1.23-3.26,2.95-5.53,5.18l-2.57,2.55c-4.89,4.87-7.82,7.31-8.79,7.31-.29,.01-.57-.09-.78-.28-.19-.18-.3-.43-.29-.69,0-.67,1.07-2.9,3.21-6.69l2.58-4.69,15.1-27.81-6.76,.76-11.17,18.23c-.49,.71-1.07,1.49-1.76,2.34-.69,.85-1.45,1.71-2.28,2.59l-1.75,1.83c-.39,.41-.89,.92-1.48,1.51l-.14,.14-.76,.69c-2,1.82-3.61,3.26-4.82,4.31-2.61,2.44-5.48,4.59-8.55,6.43-1.76,1-3.73,1.55-5.75,1.6-.56,.04-1.12-.07-1.62-.31-.34-.22-.53-.6-.51-1,.03-.57,.13-1.13,.31-1.67,.21-.73,.57-1.84,1.1-3.33,3.72-.52,7.27-1.86,10.4-3.93,2.67-1.89,4-3.93,4-6.14,.07-1.21-.37-2.39-1.21-3.26-.89-.79-2.05-1.2-3.24-1.14-1.41,.03-2.81,.29-4.13,.79-.34,.12-.68,.25-1,.4-2.02,.86-3.91,1.98-5.64,3.33-1.92,1.4-3.58,3.14-4.89,5.12-.8,1.25-1.33,2.65-1.54,4.12h-.38c-6.14-.51-11.43-2.26-14.5-4.53,4.21,3.42,9.41,5.38,14.82,5.59v.15c-.08,1.98,.71,3.9,2.15,5.26,1.57,1.39,3.61,2.1,5.7,2,2.4-.05,4.75-.7,6.83-1.9,2.32-1.27,5.73-3.93,10.24-8,.62-.57,1.4-1.33,2.34-2.25,1.03-.68,1.95-1.5,2.76-2.43,1-1.02,1.83-1.85,2.49-2.49h0c-1.45,2.41-2.75,4.92-3.87,7.5-.71,1.52-1.14,3.16-1.26,4.83-.07,1.29,.39,2.55,1.26,3.5,.9,.88,2.13,1.35,3.39,1.29,2.3,0,6.3-2.96,12-8.89l1.86-1.93,1.07-1.1,1-1.07c.24-.22,.53-.49,.86-.82,.51-.5,.92-.91,1.24-1.21l1.29-1.24,.74-.65c-.25,.45-.6,1.05-1.06,1.82-3.01,5.19-4.51,8.72-4.51,10.58-.05,1.18,.35,2.33,1.12,3.23,.82,.82,1.96,1.26,3.12,1.19,1.75-.09,3.43-.69,4.84-1.72,2.63-1.92,5.07-4.09,7.29-6.47l3.1-3.24,1.37-1.43c.46-.41,1.05-1,1.77-1.71l1.16-1.18c.44-.41,.86-.79,1.25-1.14-.29,.58-.69,1.36-1.21,2.35-2.41,4.73-3.62,7.96-3.62,9.68-.07,1.27,.33,2.52,1.14,3.51,.81,.88,1.98,1.35,3.17,1.28,2.39,0,6.18-2.6,11.37-7.79l.55-.52c.55-.55,1.24-1.25,2.06-2.08-.37,1.02-.57,2.1-.57,3.19-.08,1.98,.71,3.9,2.15,5.26,1.57,1.39,3.61,2.1,5.7,2,2.4-.05,4.75-.7,6.83-1.9,2.32-1.27,5.73-3.93,10.24-8,.91-.85,2.14-2.05,3.69-3.6,2.1-2.21,4.45-4.16,7-5.82l-.42-.09Zm-22.56,2.1c1.94-2.29,3.5-3.43,4.67-3.43,.44,0,.84,.23,1.09,.59,.31,.4,.47,.9,.46,1.41,0,1.95-1.13,3.98-3.38,6.07-2.12,2.03-4.82,3.35-7.72,3.79,1.15-3.06,2.81-5.91,4.89-8.43h0Zm-84.47,0c.86-1.07,1.87-2.02,3-2.81,.5-.37,1.09-.58,1.7-.62,.44,0,.84,.23,1.09,.59,.31,.4,.47,.9,.46,1.41,0,.53-.1,1.06-.26,1.56-.63,1.76-1.72,3.33-3.15,4.53-2.13,2.02-4.82,3.33-7.72,3.77,1.15-3.06,2.81-5.91,4.89-8.43h-.01Z"/>
      <path class="cls-3" d="M36.41,61.88c.73,.48,1.69,.42,2.36-.13,2-1.56,1.19-4.39,4.16-5.22,.78-.18,1.58-.21,2.37-.08l.45-.55c-2.74-.46-5.56-.07-8.07,1.12-1.16,.4-2.04,1.35-2.37,2.53-.12,.93,.31,1.84,1.1,2.33Z"/>
    </g>
    <rect class="cls-2" x="14.63" y="116.67" width="114.19" height="1.9"/>
    <g>
      <path class="cls-4" d="M28.73,111.8c-.09-.01-.09-.1-.09-.21,.17-.81,.51-1.58,1.01-2.25,1.16-1.96,3.17-4.5,5.06-6.94,.5-.55,.92-1.17,1.24-1.84,0-.41-.85-1.35-1.16-1.35-.02,0-.04,0-.06,0,.09,.06,.13,.17,.12,.28,0,.54-.56,1.45-1.51,2.72-.95,1.27-2.42,3.3-3.14,4.31-1.79,2.51-2.54,3.67-2.54,4.4,.06,.49,.35,.92,.79,1.16,.21,.14,.45,.22,.71,.23,.54,0,2.11-1.79,2.71-2.81,.07-.09,0-.12-.12,0-.89,.91-1.91,1.69-3.02,2.31Z"/>
      <path class="cls-4" d="M32.11,101.62c-1.89,1.33-4.91,2.78-5.72,2.49-.27-.06-.48-.29-.52-.57-.21-2.49,5.38-5.21,10.89-5.21,2.88,.06,5.73,.5,8.48,1.33,.14,.04,.14-.06-.02-.08-3.04-1.31-6.31-1.98-9.62-1.96-6.15,0-10.78,2.41-10.78,5.05,.25,1.12,1.18,1.95,2.31,2.07,1.38,.09,3.35-1.31,4.97-2.98,.23-.15,.15-.25,0-.15Z"/>
      <path class="cls-4" d="M42,105.22c-1.17,1.2-2.47,2.27-3.88,3.18-.06,0-.06-.06-.06-.06,.68-1.28,1.5-2.48,2.43-3.59,.28-.35,.54-.6,.54-.6,0-.02,0-.05,0-.07-.05-.4-.26-.77-.58-1.02-.13-.15-.32-.23-.52-.22,.07,.04,.11,.12,.1,.2-.03,.34-.18,.67-.42,.92-1.61,1.68-3.41,3.16-5.38,4.4-.09,0-.09-.12-.09-.12,.4-.9,.94-1.73,1.61-2.47,.45-.56,1.31-1.52,1.31-1.52,0-.02,0-.05,0-.07,0-.45-.22-.87-.57-1.16-.29-.25-.66-.19-.53-.16,.13,.02,.2,.1,.2,.27-.11,.28-.25,.53-.44,.76-1.27,1.63-2.7,3.51-2.7,3.95,.05,.39,.23,.75,.51,1.02,.16,.22,.41,.36,.68,.39h.06c1.51-1.09,2.91-2.33,4.16-3.71-.64,.75-1.16,1.59-1.56,2.49,0,.46,.58,1.25,1.03,1.25,.97-.57,1.84-1.3,2.58-2.15,.79-.82,1.37-1.48,1.63-1.83,.07-.08-.04-.16-.12-.08Z"/>
      <path class="cls-4" d="M56.4,102.32c.51-.37,.98-.78,1.42-1.23v-.07c-.11-.43-.37-.81-.73-1.06-.35-.22-.45-.14-.45-.14,.12,.05,.19,.17,.18,.3-.09,.73-.33,1.42-.72,2.05-.04,.08-.01,.18,.07,.22,.08,.04,.18,.01,.22-.07Z"/>
      <path class="cls-4" d="M38.45,102.32c.51-.37,.98-.78,1.42-1.23v-.07c-.11-.43-.37-.81-.73-1.06-.35-.22-.45-.14-.45-.14,.12,.05,.19,.17,.18,.3-.09,.73-.33,1.42-.72,2.05-.04,.08-.01,.18,.07,.22,.08,.04,.18,.01,.22-.07Z"/>
      <path class="cls-4" d="M61.06,108.24c.46-.74,.81-1.55,1.05-2.38v-.13c-.05-.22-.16-.42-.32-.58,.45-.17,1.26-.79,1.26-1.01-.12-.83-.87-1.43-1.71-1.34-1.08,0-2.86,1.19-4.17,2.49-1.13,1.14-2.38,2.17-3.72,3.04-.06,0-.06-.06-.06-.06,.28-.71,.67-1.37,1.16-1.96,.61-.73,1.17-1.51,1.68-2.31-.13-.36-.34-.69-.63-.95-.3-.24-.39-.15-.39-.15,.21,.1,.05,.57-.25,1.03-.4,.5-.78,1.02-1.15,1.55-1.09,1.09-2.29,2.07-3.58,2.91-.06,0-.06-.06-.06-.06,.71-1.39,1.54-2.72,2.49-3.97l3.09-4.32s0-.05,0-.07c-.16-.41-.41-.78-.73-1.09-.3-.24-.39-.15-.39-.15,.22,.1,.12,.51-.15,.99-.52,.95-2.05,2.99-3.21,4.63-.25,.33-.48,.68-.72,1.03-1.04,.81-2.15,1.54-3.32,2.16-.76,.47-1.61,.8-2.49,.96-.2,0-.31-.07-.31-.25,.1-.53,.32-1.02,.65-1.45,2.2-.01,5.17-1.99,5.17-2.59-.07-.73-.66-1.3-1.39-1.35-.82,.11-1.59,.43-2.24,.94-1.03,.67-1.93,1.52-2.65,2.51-.33,.43-.54,.95-.58,1.49,.2,.76,.81,1.34,1.57,1.5,1.01,0,3.34-1.57,5.04-3.11-.37,.59-.72,1.19-1.04,1.81-.01,.06-.01,.13,0,.2,.06,.33,.25,.62,.52,.81,.14,.15,.33,.24,.53,.25,.97-.57,1.85-1.3,2.58-2.15,.14-.15,.27-.29,.4-.42-.27,.42-.55,.83-.8,1.26-.01,.07-.01,.13,0,.2,.06,.33,.25,.62,.52,.81,.14,.15,.33,.24,.53,.25,.93-.54,1.76-1.24,2.47-2.05-.14,.28-.23,.54-.23,.75,.11,.63,.55,1.14,1.16,1.34,1.3-.64,2.47-1.5,3.47-2.55l.88-.8c-.38,.71-.91,1.66-1.54,2.65-1.59,.38-3.14,.9-4.63,1.56-2.02,.91-3.53,2.13-3.47,2.95,.08,1.11,1.62,1.92,2.78,1.86,1.66-.08,3.95-2.35,5.02-3.77,.64-.82,1.22-1.68,1.76-2.57l1.39-.26c.13-.02,.08-.2-.07-.21-.4,.04-.51,.04-1.16,.1Zm-11.64-4.75c.08,0,.15-.02,.15,.13s-.28,.66-1.16,1.31c-.9,.71-1.93,1.24-3.03,1.56h-.06c1.22-1.4,3.13-3,4.1-3Zm8.61,7.2c-1.39,1.84-3.55,3.59-5.14,3.59-.34,0-.62-.25-.65-.59-.05-.63,.81-1.52,2.14-2.41,1.39-.9,2.89-1.62,4.47-2.14l.28-.09c-.32,.58-.71,1.12-1.1,1.64Zm2.62-4.92c-1.22,1.05-2.58,1.92-4.04,2.61-.09,0-.09-.08-.09-.08,.63-1.18,1.47-2.23,2.49-3.1,.8-.83,1.79-1.45,2.88-1.82,.1-.01,.2-.01,.3,0,.18-.02,.34,.09,.38,.27,.07,.28-.32,.9-.79,1.44h-.01c-.12-.17-.31-.3-.52-.35,.08,.04,.14,.12,.14,.21,0,.21-.54,.67-.74,.83Z"/>
      <path class="cls-4" d="M71.37,105.94c-.17-.07-.94-.25-1.01-.5,0-.57,2.31-2.03,3.47-2.03,.21,0,.21,.1,.21,.1,0,.27-.94,1.01-1.16,1.23-.04,.08,0,.08,.07,.08,.32-.08,1.56-.49,1.56-1.05-.15-.59-.67-1.02-1.29-1.04-1.38,0-3.78,1.32-3.78,2.31,0,.1,.03,.19,.07,.27-1.07,.85-2.22,1.6-3.43,2.23-.76,.47-1.61,.8-2.49,.96-.2,0-.31-.07-.31-.25,.1-.53,.32-1.02,.65-1.45,2.2-.01,5.17-1.99,5.17-2.59-.07-.73-.66-1.3-1.39-1.35-.82,.11-1.59,.43-2.24,.94-1.03,.67-1.93,1.52-2.65,2.51-.33,.43-.54,.95-.58,1.49,.2,.76,.81,1.34,1.57,1.5,1.18,0,4.13-2.12,5.8-3.85,.26,.28,.76,.45,1.24,.62l-1.05,.43c-.93,.3-1.75,.89-2.31,1.69-.1,.43,.67,1.23,1.34,1.23,1.26-.09,2.47-.54,3.47-1.31,.54-.44,.65-.71,.65-1.05s-.46-.62-1.02-.87c1.13-.43,2.29-.8,3.47-1.09,.07-.02,.09-.1,0-.1-1.38,.18-2.73,.49-4.04,.94Zm-3.11-2.44c.08,0,.15-.02,.15,.13s-.28,.66-1.16,1.31c-.89,.7-1.91,1.23-3,1.56h-.06c1.22-1.4,3.14-3,4.06-3Zm3.81,3.24c-.28,.36-.65,.65-1.06,.85-.86,.54-1.81,.93-2.8,1.16h-.09c0-.24,.79-1.02,2.23-1.77,.45-.24,.9-.44,1.32-.63,.22,.1,.5,.19,.4,.39Z"/>
      <path class="cls-4" d="M87.29,104.41c-.14-.91-.91-1.73-1.59-1.59-.53,.12-1.02,.37-1.43,.72-.82,.23-1.83,.97-2.61,1.83-1.13,1.13-2.36,2.15-3.7,3.02-.06,0-.06-.06-.06-.06,.71-1.39,1.54-2.72,2.49-3.97l3.09-4.32s0-.05,0-.07c-.16-.41-.41-.78-.73-1.09-.3-.24-.39-.15-.39-.15,.22,.1,.12,.51-.15,.99-.52,.95-2.05,2.99-3.21,4.63-.88,1.14-1.65,2.36-2.31,3.65-.01,.06-.01,.13,0,.2,.07,.33,.25,.62,.52,.81,.14,.15,.33,.24,.53,.25,.97-.57,1.84-1.3,2.58-2.15,.15-.15,.28-.3,.41-.44-.18,.35-.3,.69-.31,.99-.03,.95,1.13,1.51,1.59,1.58,2.08,.35,5.21-3.18,5.29-4.54,.6,.01,1.2-.03,1.79-.14,.37-.16,.21-.16,.07-.16-.62,.05-1.25,.05-1.88,0Zm-5.6,4.36h0s-.02,.01-.03,0c-.2-.03-.34-.21-.31-.4,.53-1.76,1.8-3.19,3.47-3.94,.49,.13,.99,.21,1.49,.23-.94,1.7-3.6,4.1-4.63,4.1Zm4.72-4.44c-.68-.1-1.16-.27-1.16-.57,.09-.32,.35-.57,.68-.64h0c.39-.06,.62,.16,.6,.59,0,.21-.05,.42-.13,.61Z"/>
      <path class="cls-4" d="M109.62,102.32c.51-.37,.98-.78,1.42-1.23v-.07c-.11-.43-.37-.8-.73-1.05-.35-.22-.45-.15-.45-.15,.12,.05,.2,.17,.19,.3-.09,.73-.34,1.42-.72,2.05h-.02c-.04,.09,0,.19,.08,.23,.09,.04,.19,0,.23-.08Z"/>
      <path class="cls-4" d="M121.13,102.71c-.98,.51-1.88,1.17-2.66,1.94-.35,.32-.67,.65-.97,.98,.44-.5,.83-1.05,1.16-1.63-.13-.37-.35-.69-.65-.95-.3-.24-.39-.15-.39-.15,.21,.1,.05,.64-.25,1.03-.08,.11-.21,.29-.36,.49-.46,.02-.93,.02-1.39-.02-.14-.91-.91-1.73-1.58-1.59-.53,.12-1.02,.37-1.44,.72-.8,.23-1.77,.93-2.55,1.76-.01,0-.02,0-.04,.01-.64,.56-2.78,2.65-4.22,4.16l-.3,.32c.75-1.16,1.59-2.49,2.31-3.47,.62-.73,1.18-1.5,1.68-2.31-.13-.37-.35-.69-.65-.95-.3-.24-.39-.15-.39-.15,.21,.1,.05,.57-.26,1.03-.32,.49-.66,.96-.98,1.41-1.06,.83-2.19,1.57-3.38,2.2-.76,.47-1.61,.8-2.49,.96-.2,0-.31-.07-.31-.25,.1-.53,.32-1.02,.65-1.45,2.2-.01,5.17-1.99,5.17-2.59-.07-.73-.66-1.3-1.39-1.35-.84,.08-1.64,.4-2.31,.9-.81,.55-1.53,1.22-2.14,1.97-1.04,1.01-2.16,1.94-3.38,2.72-.06,0-.06-.06-.06-.06,.41-.95,.97-1.83,1.65-2.6,.45-.57,1.33-1.57,1.33-1.57,0-.02,0-.05,0-.07-.14-.38-.36-.73-.65-1.02-.08-.09-.18-.16-.29-.21-.05-.01-.1-.01-.15,0-1.12,.67-2.15,1.48-3.07,2.41-.54,.6-1.19,1.3-1.7,1.93,.7-1.08,1.5-2.1,2.38-3.04,0-.02,0-.05,0-.07-.13-.39-.35-.74-.66-1.02-.23-.18-.31-.18-.37-.18-1.12,.62-2.14,1.4-3.02,2.31-.54,.54-1.13,1.18-1.61,1.77,.79-.96,1.51-1.98,2.18-3.03-.12-.37-.34-.69-.63-.95-.3-.24-.39-.15-.39-.15,.21,.1,.05,.57-.25,1.03-.95,1.46-2.62,3.47-2.73,4.03,.04,.46,.27,.88,.64,1.16,.15,.02,.26-.09,.15-.09-.3-.15,1.84-2.4,2.92-3.47,.81-.85,1.74-1.57,2.77-2.13-1.14,1.33-2.1,2.81-2.85,4.4-.08,.42,.51,1.13,.66,1.16,.15,.02,.21-.08,.15-.09-.06-.01-.06-.07-.06-.07,.73-1.19,1.63-2.26,2.66-3.18,.82-.85,1.78-1.56,2.83-2.1-1.17,1.38-2.21,2.86-3.11,4.43,0,.04,0,.08,0,.12-.03,.46,.67,1.25,1.05,1.25s1.86-1.41,2.58-2.15c.07-.07,.14-.14,.21-.22-.11,.26-.18,.54-.21,.83,.2,.76,.81,1.34,1.57,1.5,1.01,0,3.34-1.57,5.04-3.11-.22,.3-.45,.61-.65,.89-1.4,1.89-2.59,3.93-3.55,6.08-.31,.83,1.11,1.56,.98,1.42-.13-.14-.05-.64,.15-1.06,.62-1.16,1.37-2.25,2.22-3.25,1.08-1.33,2.56-2.94,3.52-3.95-.3,.48-.5,.95-.51,1.35-.03,.95,1.13,1.51,1.59,1.58,2.08,.35,5.21-3.18,5.29-4.54,.41,0,.82-.02,1.22-.07-.36,.51-.81,1.16-1.12,1.61l-.63,.93c-.18,.26-.33,.54-.45,.83-.12,.42,.51,1.13,.66,1.16,.15,.02,.19-.03,.15-.09-.03-.06,.04-.34,.27-.75,.7-1.2,1.62-2.26,2.7-3.14,.63-.65,1.44-1.11,2.31-1.32,.25-.04,.5,.04,.67,.22,.07,.1,.11,.23,.11,.36,.15-.2,.24-.44,.24-.68,.04-.58-.37-1.05-.62-1.05Zm-15.12,.79c.08,0,.15-.02,.15,.13s-.28,.66-1.16,1.31c-.9,.71-1.93,1.24-3.03,1.56h-.08c1.24-1.4,3.13-3,4.12-3Zm3.99,5.28h.01s-.02,.01-.04,0c-.2-.02-.34-.21-.31-.4,.53-1.76,1.79-3.19,3.47-3.94,.49,.13,.99,.21,1.49,.23-.94,1.7-3.6,4.1-4.63,4.1Zm4.72-4.44c-.68-.1-1.16-.27-1.16-.57,.09-.32,.35-.57,.68-.64h.01c.38-.06,.61,.16,.59,.59,0,.21-.05,.42-.13,.61Z"/>
      <path class="cls-4" d="M127.28,98.75c-.3-.24-.5-.18-.39-.15,.11,.03,.11,.12,.11,.22-.03,.27-.12,.54-.27,.78-.3,.57-1.03,1.78-1.61,2.74-.7,1.02-1.27,2.13-1.69,3.3,0,.28,.46,.6,.53,.63,.07,.02,.13-.02,.13-.06s-.06-.06-.06-.15h-.01c.04-.23,.13-.45,.27-.65,.82-1.35,2.87-4.36,3.81-5.52,0-.02,0-.05,0-.07-.2-.41-.47-.77-.81-1.07Z"/>
      <path class="cls-4" d="M122.6,107.35c-.48,.27-.76,.79-.72,1.34,.14,.38,.45,.67,.83,.79,0-.05,0-.11,0-.16,.05-.48,.25-.94,.58-1.3,.04-.02,.06-.06,.06-.1,.02-.24-.57-.57-.75-.57Z"/>
      <path class="cls-4" d="M20.99,101.75c-.08-.04-.09,.02-.15,.06-.06,.03,0,.07,0,.17-.04,.25-.13,.5-.28,.71-.97,1.4-3.36,4.51-4.44,5.79,0,.03,0,.05,0,.08,.2,.44,.48,.83,.83,1.16,.32,.3,.53,.24,.43,.2-.11-.05-.11-.13-.11-.24,.05-.3,.17-.58,.34-.83,.36-.59,1.22-1.89,1.9-2.9,.82-1.07,1.5-2.23,2.02-3.47,.01-.3-.46-.67-.54-.71Z"/>
      <path class="cls-4" d="M22.43,98.3c0,.06,0,.12,0,.19-.08,.52-.33,1-.7,1.38-.04,.02-.07,.07-.07,.12-.04,.27,.6,.66,.8,.66,.54-.27,.87-.82,.86-1.42-.14-.43-.47-.77-.89-.91Z"/>
    </g>
    <g>
      <path class="cls-1" d="M87.94,10.62h0c-1.56-.85-3.37-1.12-5.11-.75h-.12l-.49,.11c-.41,.11-.81,.25-1.2,.42l-2.79,.87s-4.31,1.32-7.25-.34c-.33-.19-.63-.42-.89-.7-.23-.25-.42-.53-.57-.83,.74,.55,1.76,.55,2.5,0,.33-.23,.55-.6,.61-1,.05-.2,.07-.4,.08-.61v-.09c.04-1.11-.36-2.18-1.11-3,.71-.78,1.46-1.53,2.24-2.24,1.16-1.02,2.52-1.77,4-2.21,2.56-.7,6.38,0,6.38,3.32v.09s0,.09,0,.14c-.07,.49-.53,.83-1.02,.76-.44-.06-.76-.44-.77-.88,0-.5-.4-.9-.9-.9h0c-.86,0-.92,.89-.82,1.55,.14,.93,.56,1.79,1.19,2.49,.33,.36,.73,.67,1.16,.91,1.08,.6,2.29,.92,3.53,.95h.36c.64-.06,1.22,.41,1.28,1.05,.03,.32-.07,.65-.29,.89Z"/>
      <path class="cls-1" d="M93.13,19.27c.24-.05,.47,.1,.52,.34,.02,.1,0,.21-.05,.31-3.75,6.38-11.96,8.51-18.34,4.76-2.2-1.29-3.98-3.18-5.14-5.45,1.22-.26,2.39-.72,3.45-1.38,1.92-1.17,3.22-3.12,4.92-4.57,1.16-1.02,2.52-1.78,4-2.22,2.56-.7,6.39,0,6.39,3.32v.06h0v.14c-.07,.49-.53,.83-1.02,.76-.43-.06-.76-.43-.77-.87,0-.5-.4-.9-.9-.9h0c-.85,0-.92,.89-.82,1.54,.14,.94,.56,1.81,1.2,2.51,.33,.37,.73,.68,1.16,.92,1.08,.6,2.29,.93,3.53,.95h0c.63,0,1.26-.07,1.87-.22Z"/>
      <path class="cls-1" d="M76.32,12.72c-.74,.21-1.51,.32-2.28,.32-1.23-.02-2.44-.34-3.52-.94-.43-.24-.83-.55-1.16-.92-.63-.69-1.05-1.56-1.19-2.49-.1-.64,0-1.54,.82-1.54,.49,0,.89,.39,.9,.88v.02c0,.5,.41,.91,.91,.91h0c.46,0,.84-.34,.89-.79,0-.05,0-.09,0-.14v-.09c0-3.33-3.83-4-6.39-3.32-1.48,.44-2.84,1.2-4,2.22-1.7,1.45-3,3.4-4.92,4.57-.86,.52-1.78,.93-2.74,1.21-.31,.09-.49,.41-.4,.71,.02,.05,.04,.1,.06,.15,.21,.35,.43,.69,.67,1,2.2,2.56,6.12,4.26,10.59,4.26,1.24,0,2.47-.13,3.68-.4,2.4-.49,4.61-1.64,6.39-3.32,.79-.78,1.4-1.71,2.22-2.47l-.53,.17Z"/>
    </g>
    <g>
      <path class="cls-4" d="M20.92,33.62v.78h-4.03v1.96h4.03v.78h-4.03v1.96h4.03v.78h-4.81v-6.25h4.81Z"/>
      <path class="cls-4" d="M30.77,33.62v6.25h-.78v-4.39l-2.48,4.39h-.56l-2.14-4.23v4.23h-.78v-6.25h.62l2.6,5.12,2.9-5.12h.61Z"/>
      <path class="cls-4" d="M39.19,35.38c0,.5-.18,.92-.54,1.26,.24,.16,.44,.37,.58,.62,.14,.26,.22,.55,.22,.85,0,.48-.17,.9-.51,1.24s-.76,.51-1.24,.51h-3.83v-6.25h3.57c.48,0,.9,.17,1.24,.51,.35,.34,.52,.76,.52,1.24Zm-4.55,.98h2.8c.27,0,.5-.1,.69-.29,.19-.19,.29-.42,.29-.69s-.1-.5-.29-.69c-.19-.19-.42-.29-.69-.29h-2.8v1.96Zm3.05,2.74c.27,0,.5-.1,.69-.29,.19-.19,.29-.42,.29-.69s-.1-.5-.29-.69c-.19-.19-.42-.29-.69-.29h-3.05v1.96h3.05Z"/>
      <path class="cls-4" d="M43.55,39.01c-.68-.62-1.01-1.38-1.01-2.27s.34-1.64,1.01-2.26c.67-.63,1.49-.94,2.44-.94s1.77,.31,2.44,.94c.67,.62,1.01,1.38,1.01,2.26s-.34,1.64-1.01,2.27c-.68,.63-1.49,.94-2.44,.94s-1.77-.31-2.44-.94Zm.55-3.98c-.53,.47-.79,1.04-.79,1.71s.26,1.24,.79,1.72c.52,.48,1.15,.71,1.89,.71s1.37-.24,1.89-.71c.52-.47,.78-1.05,.78-1.72s-.26-1.24-.78-1.71c-.53-.48-1.16-.71-1.89-.71s-1.37,.24-1.89,.71Z"/>
      <path class="cls-4" d="M56.81,33.62v.78h-2.31v5.47h-.78v-5.47h-2.31v-.78h5.4Z"/>
      <path class="cls-4" d="M64.72,33.62v.78h-4.03v1.96h4.03v.78h-4.03v1.96h4.03v.78h-4.81v-6.25h4.81Z"/>
      <path class="cls-4" d="M68.6,33.62v5.47h4.03v.78h-4.81v-6.25h.78Z"/>
      <path class="cls-4" d="M76.51,33.62v5.47h4.03v.78h-4.81v-6.25h.78Z"/>
      <path class="cls-4" d="M87.58,33.62l3.24,6.25h-.86l-.74-1.41h-3.96l-.73,1.41h-.86l3.22-6.25h.69Zm-1.92,4.07h3.15l-1.57-3.04-1.58,3.04Z"/>
      <path class="cls-4" d="M93.89,39.87v-6.25h2.22c.93,0,1.72,.3,2.38,.91,.66,.61,.99,1.35,.99,2.21s-.33,1.6-.99,2.21c-.66,.61-1.45,.91-2.38,.91h-2.22Zm.78-.78h1.44c.72,0,1.33-.23,1.83-.69,.51-.46,.76-1.01,.76-1.66s-.25-1.2-.76-1.66c-.51-.46-1.12-.69-1.83-.69h-1.44v4.7Z"/>
      <path class="cls-4" d="M103.57,39.01c-.68-.62-1.01-1.38-1.01-2.27s.34-1.64,1.01-2.26c.67-.63,1.49-.94,2.44-.94s1.77,.31,2.44,.94c.67,.62,1.01,1.38,1.01,2.26s-.34,1.64-1.01,2.27c-.68,.63-1.49,.94-2.44,.94s-1.77-.31-2.44-.94Zm.55-3.98c-.53,.47-.79,1.04-.79,1.71s.26,1.24,.79,1.72c.52,.48,1.15,.71,1.89,.71s1.37-.24,1.89-.71c.52-.47,.78-1.05,.78-1.72s-.26-1.24-.78-1.71c-.53-.48-1.16-.71-1.89-.71s-1.37,.24-1.89,.71Z"/>
      <path class="cls-4" d="M117.34,34.14c.35,.34,.52,.76,.52,1.24,0,.42-.13,.79-.4,1.11-.26,.32-.59,.52-.99,.61l1.39,2.77h-.88l-1.37-2.74h-2.31v2.74h-.78v-6.25h3.57c.48,0,.89,.17,1.24,.51Zm-4.03,2.22h2.8c.27,0,.5-.1,.69-.29,.19-.19,.29-.42,.29-.69s-.1-.5-.29-.69c-.19-.19-.42-.29-.69-.29h-2.8v1.96Z"/>
      <path class="cls-4" d="M124.86,33.62l3.24,6.25h-.86l-.74-1.41h-3.96l-.73,1.41h-.86l3.22-6.25h.69Zm-1.92,4.07h3.15l-1.57-3.04-1.58,3.04Z"/>
    </g>
  </g>
</svg>